<?xml version="1.0" encoding="UTF-8"?>
<svg data-name="Layer 1" id="peery-svg" version="1.1" viewBox="0 0 638 178" xmlns="http://www.w3.org/2000/svg">
  <g fill="#73a0ef">
  <path d="m23.9 0.5653c-5.75-5e-3 -11.5 0.04492-17 0.04492-4.69 0-6.416 0.368-6.416 5.168l0.1855 124.1c0.1 9.6-1 8.09 8.5 8.4 3.5 0.1 4.699-0.9 4.699-4.5-0.19-14-0.06836-51.13-0.06836-65.13 0-5.2 0.09961-5.091 5.1-5.201 9-0.19 18.2 0.02969 27-0.8203 14-1 27.6-10 29-27 2-15-4-27.1-19-32-4.852-1.601-9.897-2.542-15-2.799-5.5-0.22-11.25-0.2802-17-0.2852zm15.85 12.18c10.54 0.0424 20.82 5.931 27.25 17.47 0.6067 0.908 0.6067 2.092 0 3-13 24-43 24-56-0.06055-0.5455-0.8536-0.5455-1.945 0-2.799 7.429-11.85 18.22-17.65 28.75-17.61z"/>
  <path d="m437.1 23.15c-10.32-0.03433-21.24 3.581-29.13 15.08-0.5333 0.7111-0.5333 1.689 0 2.4 13 21.07 43 21.07 56 0.06836 0.601-0.7625 0.601-1.837 0-2.6-3.753-5.98-9.379-10.55-16-13-3.835-1.304-7.43-1.934-10.87-1.945zm-0.6973 4.846c6.627 0 12 5.373 12 12s-5.373 12-12 12-12-5.373-12-12 5.373-12 12-12z"/>
  <path d="m475.1 104c-3.8 0-4.2 0.64-3.4 4.3 4.1 19 27 25 42 12 1.3-1.2 3.4-3.3 4.1-2.9 2.616 1.406 5.009 3.192 7.1 5.3 0.33 0.32-0.48 2.4-1.2 3.2-5.334 6.22-12.85 10.16-21 11-12 1.7-24 0.27-34-9.4-11-11-13-25-8.6-39 4-14 14-22 28-24 25-3.7 40 12 40 37-0.07 2.8-1.8 2.9-3.9 2.9-16.72-0.1071-32.23-0.4-49.1-0.4zm39.92-8.684c2.3 0 3.268-1.168 2.628-3.64-6.364-24.58-40.99-23.38-47.05-0.676-0.6678 2.503 1.175 4.257 3.415 4.157 13.97-0.1427 26.46 0.1586 41.01 0.1586z"/>
  <path d="m277.5 164.4c6.1 0.6724 11-1.241 14-7.241 2.5-5.793 4.6-11.38 6.6-17.58 0.43-1.241-0.2-3.103-0.76-4.551l-26-66.2c-0.53-1.345-1-2.689-1.6-4.551 4.2 0 7.9-0.2793 12 0.1655 1.2 0.1448 2.5 2.069 3 3.414 6.4 16.55 13 33.1 19 49.65 0.47 1.241 1 2.379 2 4.551 0.95-2.069 1.6-3.31 2.1-4.655 6-16.55 12-32.07 18-48.62 1.2-3.31 2.8-4.862 6.2-4.448 2.564 0.1689 5.134 0.1896 7.7 0.06206-0.61 1.862-0.94 3.103-1.4 4.344-10.67 28.27-21.33 56.89-32 85.86-1.523 4.294-3.397 8.447-5.6 12.41-3.06 5.57-8.807 8.979-15 8.896-5.065-0.1055-13.95 0.9293-12.7-4.975 0.48-2.069 0.2424-3.534 1.611-5.523 0.867-1.26 2.268-1.07 2.849-1.004z"/>
  <path d="m414 64.8c-0.48 1.649-0.7 2.783-1.1 3.711-8.3 21.65-17 44.33-25 65.97-1.1 2.886-2.4 4.02-5.4 3.917-11-0.402-8 1.752-12-8.556-7.9-20.62-16-40.2-24-60.82-0.48-1.237-0.89-2.577-1.6-4.536 4.4 0 8.3-0.2165 12 0.1649 0.87 0.08247 1.8 2.165 2.3 3.402q9.5 24.74 19 49.48c0.47 1.237 1 2.371 1.9 4.536 0.86-1.855 1.4-2.886 1.8-3.917 5.9-16.49 12-32.99 18-49.48 1.3-3.711 3-5.154 6.7-4.742a58 59.79 0 0 0 7 0.02062z"/>
  <path d="m232.5 76.39c0.58-0.6982 1.2-1.335 1.8-2.053 5.8-7.392 13-10.27 23-10.27 2.4 0.07187 3.7 0.8625 3.4 3.491a5.8 5.955 0 0 0 0 0.7392c-0.05 7.392-0.05 7.392-7.1 7.392-12 0.08214-20 8.419-20 22.59-0.45 11.29-0.42 23.61-0.57 34.91-0.07 5.134 0 5.134-5 5.134-7.1 0-6.4 0.7187-6.4-6.468-0.07-20.53 0-41.07-0.2-61.6 0-3.183 0.73-4.723 4-4.312a4.2 4.312 0 0 0 0.71 0c5.9 0 5.9 0 6 5.852v4.928z"/>
  <path d="m441 102.2c0 11.15-0.1 22.3 0.05 32.59 0 3.173-1 4.117-3.9 4.031-8.3-0.2401-7.5 0.9434-7.5-7.89q0-30.87 0-61.75c0-5.06 0-5.146 4.7-5.146 7.6 0 6.6-0.8576 6.7 7.118 0.04 10.29 0.01 20.58 0.01 30.87z"/>
  <circle id="circle-e1" cx="88.51" cy="84.59" r="9.8"/>
  <circle id="circle-p" cx="39.7" cy="31.81" r="14"/>
  <circle id="circle-e2" cx="173.5" cy="84.53" r="9.8"/>
  <circle id="circle-e3" cx="494.2" cy="84.68" r="9.8"/>
  <path d="m638 63.7c-1.9 6.328-3.5 12-5.2 17.46-5.1 17.46-10 34.91-15 52.37-1 3.709-2.547 4.782-6.1 4.8h-2.1c-3.542 0.0479-4.9-1.2-6-4.582-5.4-16.37-11-32.73-16-49.1-0.39-1.2-0.86-2.291-1.7-4.364-0.83 2.291-1.4 3.709-1.9 5.237-4.8 16.37-9.7 31.64-14 48-0.94 3.273-2.199 4.461-5.5 4.431-8.896-0.0804-6.9 1.57-9.6-7.486-6.2-20.73-12-41.46-18-61.1-0.45-1.527-0.77-3.055-1.3-5.346 3.667-0.1813 7.34-0.123 11 0.1746 0.91 0.12 1.9 2.291 2.3 3.709 4.5 16.37 9 32.73 13 49.1 0.3372 1.416 1.03 2.7 2 3.709 1.1-3.273 2.2-6.546 3.2-9.819 4.4-14.18 8.8-28.37 13-42.55 1-3.273 2.3-4.691 5.6-4.582 9.2 0.4146 7-1.309 10 7.855 4.8 15.27 9.5 30.55 14 44.73 0.41 1.309 0.89 2.509 1.7 4.8 0.68-1.855 1.1-2.837 1.4-3.819 4.5-16.37 9-32.73 13-49.1 0.9-3.491 2.4-4.8 5.6-4.364 2.5 0.1001 5.003 0.06371 7.5-0.1091z"/>
  <circle id="circle-i" cx="436.3" cy="40.2" r="7.432"/>
  <path d="m154 104c-3.8 0-4.2 0.64-3.4 4.3 4.1 19 27 25 42 12 1.3-1.2 3.4-3.3 4.1-2.9 2.616 1.406 5.009 3.192 7.1 5.3 0.33 0.32-0.48 2.4-1.2 3.2-5.334 6.22-12.85 10.16-21 11-12 1.7-24 0.27-34-9.4-11-11-13-25-8.6-39 4-14 14-22 28-24 25-3.7 40 12 40 37-0.07 2.8-1.8 2.9-3.9 2.9-16.72-0.1071-32.23-0.4-49.1-0.4zm39.92-8.684c2.3 0 3.268-1.168 2.628-3.64-6.364-24.58-40.99-23.38-47.05-0.676-0.6678 2.503 1.175 4.257 3.415 4.157 13.97-0.1427 26.46 0.1586 41.01 0.1586z"/>
  <path d="m70 104c-3.8 0-4.2 0.64-3.4 4.3 4.1 19 27 25 42 12 1.3-1.2 3.4-3.3 4.1-2.9 2.616 1.406 5.009 3.192 7.1 5.3 0.33 0.32-0.48 2.4-1.2 3.2-5.334 6.22-12.85 10.16-21 11-12 1.7-24 0.27-34-9.4-11-11-13-25-8.6-39 4-14 14-22 28-24 25-3.7 40 12 40 37-0.07 2.8-1.8 2.9-3.9 2.9-16.72-0.1071-32.23-0.4-49.1-0.4zm39.92-8.684c2.3 0 3.268-1.168 2.628-3.64-6.364-24.58-40.99-23.38-47.05-0.676-0.6678 2.503 1.175 4.257 3.415 4.157 13.97-0.1427 26.46 0.1586 41.01 0.1586z"/>
  </g>
</svg>
