<?xml version="1.0" encoding="UTF-8" standalone="no"?>
<svg
   data-name="Layer 1"
   version="1.1"
   viewBox="0 0 638 175"
   id="peery-svg"
   sodipodi:docname="peeryicon.svg"
   inkscape:version="1.1.2 (0a00cf5339, 2022-02-04)"
   xmlns:inkscape="http://www.inkscape.org/namespaces/inkscape"
   xmlns:sodipodi="http://sodipodi.sourceforge.net/DTD/sodipodi-0.dtd"
   xmlns="http://www.w3.org/2000/svg"
   xmlns:svg="http://www.w3.org/2000/svg">
  <sodipodi:namedview
     id="namedview33"
     pagecolor="#ffffff"
     bordercolor="#666666"
     borderopacity="1.0"
     inkscape:pageshadow="2"
     inkscape:pageopacity="0.0"
     inkscape:pagecheckerboard="0"
     showgrid="false"
     inkscape:zoom="0.86901714"
     inkscape:cx="357.3002"
     inkscape:cy="208.85664"
     inkscape:window-width="1536"
     inkscape:window-height="834"
     inkscape:window-x="0"
     inkscape:window-y="0"
     inkscape:window-maximized="1"
     inkscape:current-layer="svg31"
     showguides="true"
     inkscape:guide-bbox="true"
     inkscape:snap-others="true"
     inkscape:snap-to-guides="false"
     inkscape:snap-global="false">
    <inkscape:grid
       type="xygrid"
       id="grid1823" />
    <sodipodi:guide
       position="135.34415,36.816463"
       orientation="0,-1"
       id="guide1825" />
    <sodipodi:guide
       position="-13.649441,111.14493"
       orientation="0,-1"
       id="guide1827" />
  </sodipodi:namedview>
  <defs
     id="defs4">
    <style
       id="style2">.cls-1{fill:#73a0ef;}.cls-2{fill:#fff;}</style>
  </defs>
  <path
     class="cls-1"
     d="m 23.9,0.56527701 c -5.75,-0.005 -11.5,0.04492 -17,0.04492 -4.69,0 -6.416,0.368 -6.416,5.16799999 L 0.6695,129.90353 c 0.1,9.6 -1,8.09 8.5,8.4 3.5,0.1 4.699,-0.9 4.699,-4.5 -0.19,-14 -0.06836,-51.125333 -0.06836,-65.125333 0,-5.2 0.09961,-5.091 5.1,-5.201 9,-0.19 18.2,0.02969 27,-0.8203 14,-1 27.6,-10 29,-27 2,-15 -4,-27.1 -19,-32 -4.852,-1.601 -9.897,-2.542 -15,-2.79899999 -5.5,-0.22 -11.25,-0.2802 -17,-0.2852 z M 39.75,12.745277 c 10.54,0.0424 20.82,5.931 27.25,17.47 0.6067,0.908 0.6067,2.092 0,3 -13,24 -43,24 -56,-0.06055 -0.5455,-0.8536 -0.5455,-1.945 0,-2.799 7.429,-11.85 18.22,-17.65 28.75,-17.61 z"
     id="path6"
     sodipodi:nodetypes="csccccscccccccccccccc" />
  <path
     class="cls-1"
     d="m 437.08285,23.15 c -10.32,-0.03433 -21.23746,3.580728 -29.13,15.08 -0.5333,0.7111 -0.5333,1.689 0,2.4 13,21.07 43,21.07 56,0.06836 0.601,-0.7625 0.601,-1.837 0,-2.6 -3.753,-5.98 -9.379,-10.55 -16,-13 -3.835,-1.304 -7.43,-1.934 -10.87,-1.945 z m -0.6973,4.846 c 6.62742,0 12,5.372583 12,12 0,6.627417 -5.37258,12 -12,12 -6.62742,0 -12,-5.372583 -12,-12 0,-6.627417 5.37258,-12 12,-12 z"
     id="path8"
     sodipodi:nodetypes="ccccccccsssss" />
  <path
     class="cls-1"
     d="m 475.12453,104 c -3.8,0 -4.2,0.64 -3.4,4.3 4.1,19 27,25 42,12 1.3,-1.2 3.4,-3.3 4.1,-2.9 2.616,1.406 5.009,3.192 7.1,5.3 0.33,0.32 -0.48,2.4 -1.2,3.2 -5.334,6.22 -12.85,10.16 -21,11 -12,1.7 -24,0.27 -34,-9.4 -11,-11 -13,-25 -8.6,-39 4,-14 14,-22 28,-24 25,-3.7 40,12 40,37 -0.07,2.8 -1.8,2.9 -3.9,2.9 -16.72,-0.1071 -32.23,-0.4 -49.1,-0.4 z m 39.92,-8.684 c 2.3,0 3.26801,-1.1676 2.628,-3.64 -6.36396,-24.584317 -40.99404,-23.377144 -47.05,-0.676 -0.6678,2.50329 1.175,4.257 3.415,4.157 13.97,-0.1427 26.46,0.1586 41.01,0.1586 z"
     id="path10"
     sodipodi:nodetypes="scccccccccccscssccc" />
  <path
     class="cls-1"
     d="m 272,163.59026 c 2,0.31032 3.8,0.62063 5.5,0.81717 6.1,0.67236 11,-1.24128 14,-7.24079 2.5,-5.79264 4.6,-11.3784 6.6,-17.58479 0.43,-1.24128 -0.2,-3.1032 -0.76,-4.55136 q -13,-33.10078 -26,-66.201556 c -0.53,-1.344719 -1,-2.689438 -1.6,-4.551357 4.2,0 7.9,-0.279288 12,0.165504 1.2,0.144816 2.5,2.068798 3,3.413518 6.4,16.550389 13,33.100781 19,49.651171 0.47,1.24127 1,2.37911 2,4.55135 0.95,-2.0688 1.6,-3.31008 2.1,-4.65479 6,-16.55039 12,-32.066383 18,-48.616772 1.2,-3.310078 2.8,-4.861677 6.2,-4.447917 a 69,71.373553 0 0 0 7.7,0.06206 c -0.61,1.861919 -0.94,3.103198 -1.4,4.344477 q -16,42.410372 -32,85.855152 a 78,80.683147 0 0 1 -5.6,12.41279 17,17.584788 0 0 1 -15,8.89583 c -3,0 -6,0 -9,-0.21722 -2.8,-0.17585 -4.5,-1.34472 -3.7,-4.75824 0.48,-2.0688 0.69,-4.1376 1.1,-6.51672 z"
     id="path12"
     style="stroke-width:1.01705" />
  <path
     class="cls-1"
     d="m 414,64.798992 c -0.48,1.649318 -0.7,2.783224 -1.1,3.710966 -8.3,21.647299 -17,44.325422 -25,65.972722 -1.1,2.8863 -2.4,4.02021 -5.4,3.91713 -11,-0.40202 -8,1.7524 -12,-8.55584 -7.9,-20.61647 -16,-40.202125 -24,-60.818601 -0.48,-1.236988 -0.89,-2.577059 -1.6,-4.535624 4.4,0 8.3,-0.216473 12,0.164932 0.87,0.08247 1.8,2.16473 2.3,3.401718 q 9.5,24.73977 19,49.479545 c 0.47,1.23698 1,2.37089 1.9,4.53562 0.86,-1.85548 1.4,-2.88631 1.8,-3.91713 5.9,-16.49318 12,-32.98636 18,-49.479541 1.3,-3.710965 3,-5.154118 6.7,-4.741789 a 58,59.787778 0 0 0 7,0.02062 z"
     id="path14"
     style="stroke-width:1.01529" />
  <path
     class="cls-1"
     d="m 232.52752,76.386891 c 0.58,-0.698179 1.2,-1.334754 1.8,-2.053468 5.8,-7.392484 13,-10.267339 23,-10.267339 2.4,0.07187 3.7,0.862457 3.4,3.490895 a 5.8,5.9550566 0 0 0 0,0.739249 c -0.05,7.392484 -0.05,7.392484 -7.1,7.392484 -12,0.08214 -20,8.419218 -20,22.588146 -0.45,11.294072 -0.42,23.614882 -0.57,34.908952 -0.07,5.13367 0,5.13367 -5,5.13367 -7.1,0 -6.4,0.71871 -6.4,-6.46842 -0.07,-20.53468 0,-41.06936 -0.2,-61.604038 0,-3.182875 0.73,-4.722976 4,-4.312282 a 4.2,4.3122824 0 0 0 0.71,0 c 5.9,0 5.9,0 6,5.852383 v 4.928323 z"
     id="path16"
     style="stroke-width:1.01328" />
  <path
     class="cls-1"
     d="m 440.98285,102.1552 c 0,11.1489 -0.1,22.2978 0.05,32.5891 0,3.17315 -1,4.11652 -3.9,4.03075 -8.3,-0.24013 -7.5,0.94337 -7.5,-7.88999 q 0,-30.87388 0,-61.747761 c 0,-5.059885 0,-5.145647 4.7,-5.145647 7.6,0 6.6,-0.857607 6.7,7.118145 0.04,10.291294 0.01,20.582587 0.01,30.873883 z"
     id="path18"
     style="stroke-width:0.926071" />
  <circle
     id="circle-e1"
     class="cls-1 circle"
     cx="88.510132"
     cy="84.592163"
     r="9.8000002" />
  <circle
     id="circle-p"
     class="cls-1 circle"
     cx="39.700821"
     cy="31.810951"
     r="14" />
  <circle
     id="circle-e2"
     class="cls-1 circle"
     cx="173.51425"
     cy="84.525864"
     r="9.8000002" />
  <circle
     id="circle-e3"
     class="cls-1 circle"
     cx="494.24985"
     cy="84.677841"
     r="9.8000002" />
  <path
     class="cls-1"
     d="m 638,63.696 c -1.9,6.327847 -3.5,12.001088 -5.2,17.456131 -5.1,17.45613 -10,34.912259 -15,52.368389 -1,3.70942 -2.54706,4.78178 -6.1,4.80044 h -2.1 c -3.54196,0.0479 -4.9,-1.2001 -6,-4.58225 -5.4,-16.36511 -11,-32.73024 -16,-49.095354 -0.39,-1.200109 -0.86,-2.291118 -1.7,-4.364033 -0.83,2.291117 -1.4,3.709428 -1.9,5.236839 -4.8,16.365128 -9.7,31.639228 -14,48.004358 -0.94,3.27303 -2.19916,4.46055 -5.5,4.43071 -8.89595,-0.0804 -6.9,1.56983 -9.6,-7.48554 -6.2,-20.72915 -12,-41.458302 -18,-61.096448 -0.45,-1.527411 -0.77,-3.054823 -1.3,-5.34594 3.66658,-0.181257 7.33981,-0.122966 11,0.174561 0.91,0.120012 1.9,2.291118 2.3,3.709428 4.5,16.365121 9,32.730249 13,49.095359 0.33716,1.4155 1.02982,2.70019 2,3.70944 1.1,-3.27303 2.2,-6.54606 3.2,-9.81907 4.4,-14.183114 8.8,-28.36622 13,-42.549324 1,-3.273027 2.3,-4.691337 5.6,-4.582235 9.2,0.414582 7,-1.30921 10,7.855259 4.8,15.274113 9.5,30.54822 14,44.73133 0.41,1.3092 0.89,2.50932 1.7,4.80043 0.68,-1.85471 1.1,-2.83662 1.4,-3.81852 4.5,-16.36513 9,-32.730245 13,-49.095366 0.9,-3.491227 2.4,-4.800436 5.6,-4.364032 2.5001,0.100138 5.00323,0.06371 7.5,-0.109101 z"
     id="path25"
     style="stroke-width:1.04451"
     sodipodi:nodetypes="ccccccccccscccccccccccccccccc" />
  <circle
     id="circle-i"
     class="cls-1 circle"
     cx="436.33731"
     cy="40.200562"
     r="7.4323997" />
  <path
     class="cls-1"
     d="m 154,104 c -3.8,0 -4.2,0.64 -3.4,4.3 4.1,19 27,25 42,12 1.3,-1.2 3.4,-3.3 4.1,-2.9 2.616,1.406 5.009,3.192 7.1,5.3 0.33,0.32 -0.48,2.4 -1.2,3.2 -5.334,6.22 -12.85,10.16 -21,11 -12,1.7 -24,0.27 -34,-9.4 -11,-11 -13,-25 -8.6,-39 4,-14 14,-22 28,-24 25,-3.7 40,12 40,37 -0.07,2.8 -1.8,2.9 -3.9,2.9 C 186.38,104.2929 170.87,104 154,104 Z m 39.92,-8.684 c 2.3,0 3.26801,-1.1676 2.628,-3.64 -6.36396,-24.584317 -40.99404,-23.377144 -47.05,-0.676 -0.6678,2.50329 1.175,4.257 3.415,4.157 13.97,-0.1427 26.46,0.1586 41.01,0.1586 z"
     id="path1285"
     sodipodi:nodetypes="scccccccccccscssccc" />
  <path
     class="cls-1"
     d="m 70,104 c -3.8,0 -4.2,0.64 -3.4,4.3 4.1,19 27,25 42,12 1.3,-1.2 3.4,-3.3 4.1,-2.9 2.616,1.406 5.009,3.192 7.1,5.3 0.33,0.32 -0.48,2.4 -1.2,3.2 -5.334,6.22 -12.85,10.16 -21,11 -12,1.7 -24,0.27 -34,-9.4 -11,-11 -13,-25 -8.6,-39 4,-14 14,-22 28,-24 25,-3.7 40,12 40,37 -0.07,2.8 -1.8,2.9 -3.9,2.9 C 102.38,104.2929 86.87,104 70,104 Z m 39.92,-8.684 c 2.3,0 3.26801,-1.1676 2.628,-3.64 C 106.18404,67.091683 71.55396,68.298856 65.498,91 c -0.6678,2.50329 1.175,4.257 3.415,4.157 13.97,-0.1427 26.46,0.1586 41.01,0.1586 z"
     id="path1287"
     sodipodi:nodetypes="scccccccccccscssccc" />
</svg>
