<?xml version="1.0" encoding="UTF-8"?>
<svg version="1.1" viewBox="0 0 75 75" xml:space="preserve" xmlns="http://www.w3.org/2000/svg">
<style type="text/css">.st0{fill:#73A0EF;}</style>
<path class="st0" d="m37.73 15.67c-14-0.1318-27.81 6.945-35.7 20.32-0.71 1.12-0.6485 1.951 0.02148 3.061 16 26.54 54.74 26.59 70.87 0.08984 0.73-1.19 0.7695-2.07 0.01953-3.26-8.738-13.6-22.06-20.09-35.21-20.21zm-0.08203 6.699a15.1 15.1 0 0 1 15.1 15.1 15.1 15.1 0 0 1-15.1 15.1 15.1 15.1 0 0 1-15.1-15.1 15.1 15.1 0 0 1 15.1-15.1z"/><circle id="circle8" class="st0" cx="33.63" cy="35.96" r="11.24"/>
</svg>
