<?xml version="1.0" encoding="UTF-8"?>
<svg width="1in" height="1in" version="1.1" viewBox="0 0 25 25" xmlns="http://www.w3.org/2000/svg" xmlns:xlink="http://www.w3.org/1999/xlink">
   <defs>
      <linearGradient id="linearGradient2923">
         <stop stop-color="#211649" offset="0"/>
         <stop stop-color="#93c4d8" offset="1"/>
      </linearGradient>
      <linearGradient id="linearGradient3728" x1="2.4" x2="15" y1="1.4" y2="5.6" gradientUnits="userSpaceOnUse" xlink:href="#linearGradient2923"/>
      <linearGradient id="linearGradient4742" x1=".95" x2="6.9" y1="4.8" y2="14" gradientUnits="userSpaceOnUse" xlink:href="#linearGradient2923"/>
      <linearGradient id="linearGradient4991" x1="7.9" x2="16" y1="7" y2="11" gradientUnits="userSpaceOnUse" xlink:href="#linearGradient2923"/>
      <linearGradient id="linearGradient5811" x1="9.1" x2="14" y1="12" y2="18" gradientUnits="userSpaceOnUse" xlink:href="#linearGradient2923"/>
      <linearGradient id="linearGradient5857" x1="12" x2="25" y1="10" y2="19" gradientUnits="userSpaceOnUse" xlink:href="#linearGradient2923"/>
      <linearGradient id="linearGradient5903" x1="16" x2="20" y1="16" y2="25" gradientUnits="userSpaceOnUse" xlink:href="#linearGradient2923"/>
      <linearGradient id="linearGradient6063" x1="21" x2="23" y1="19" y2="24" gradientUnits="userSpaceOnUse" xlink:href="#linearGradient2923"/>
   </defs>
   <g>
      <g transform="matrix(1 0 0 1.1 -.85 -1.9)" style="paint-order:markers fill stroke">
         <path d="m20 19 0.39-2.5 5.2 2.9s0.9 4.5-3.3 6-2.3-6.4-2.3-6.4z" fill="url(#linearGradient6063)" style="paint-order:markers fill stroke"/>
         <path d="m15 15s-0.13 4.9 1.1 7.5c0.81 1.7 1.5 2.5 1.5 2.5l4-0.0065s0.94-5.6-0.45-6.8-6.2-3.3-6.2-3.3z" fill="url(#linearGradient5903)" style="paint-order:markers fill stroke"/>
         <path d="m14 12s6 0.22 8.4 2.3c2.4 2 3.1 5 3.1 5s-2.8-1.5-3.9-1.2c-1.1 0.25-5.8 0.032-6.8-2-0.99-2-0.79-4-0.79-4z" fill="url(#linearGradient5857)" style="paint-order:markers fill stroke"/>
         <path d="m7.7 9.5c0 0.12 4.5 2.3 5.9 2.5 1.4 0.14 1 8.5 1.9 10 0.21 0.46-5.2-1.2-6.2-4.4-1-3.2-1.8-5.7-1.6-7.1 0.24-1.4 0.041-1.4 0.041-1.4z" fill="url(#linearGradient5811)" style="paint-order:markers fill stroke"/>
         <path d="m8.8 5.6s2.9-1.2 5.7 0.65 6.3 7.1 6.3 7.1-2.6-1.2-5.6-1.2c-2.5 0.036-6.7-1.2-7.8-2.2-1.8-1.5-0.26-4.4-0.26-4.4z" fill="url(#linearGradient4991)" style="paint-order:markers fill stroke"/>
         <path d="m1.9 4.9 5.2 0.56s0.35 0.26 0.38 1.1c0.026 0.89 0.71 7.7 1.1 8.9-0.57-0.046-4.1-2.1-5.2-4.4-1.1-2.3-1.7-4-1.6-4.9 0.058-0.96 0.15-1.3 0.15-1.3z" fill="url(#linearGradient4742)" style="paint-order:markers fill stroke"/>
         <path d="m14 5.8c-1.8-0.51-10 1.3-12-0.95-1.5-1.7 1.3-2.9 3-2.6 5.2 0.69 5.8 1 9.2 3.6z" fill="url(#linearGradient3728)" stop-color="#000000" style="font-variation-settings:normal;paint-order:markers fill stroke"/>
      </g>
   </g>
</svg>
